<svg class="u-svg-scalable" id="Layer_1" data-name="Layer 1" version="1.1" xmlns="http://www.w3.org/2000/svg" xmlns:xlink="http://www.w3.org/1999/xlink" viewBox="0 0 171.75 64.13" xml:space="preserve" preserveAspectRatio="xMidYMid"><defs><style>.cls-1{fill:#bfbdbd;}</style></defs><title>Artboard 1 copy</title>
				
				<path class="cls-1" d="M13.05,39.1a8.08,8.08,0,0,0,2.42,2.84A10.48,10.48,0,0,0,19,43.54a16.34,16.34,0,0,0,4.2.53,21,21,0,0,0,3.15-.25,10.75,10.75,0,0,0,3.15-.94A6.94,6.94,0,0,0,32,41a4.81,4.81,0,0,0,1-3.12,4.4,4.4,0,0,0-1.29-3.29,10.26,10.26,0,0,0-3.4-2.1A33.61,33.61,0,0,0,23.48,31q-2.65-.63-5.39-1.4a48.73,48.73,0,0,1-5.46-1.72,18.7,18.7,0,0,1-4.76-2.62,12.29,12.29,0,0,1-3.39-4,12.23,12.23,0,0,1-1.3-5.84A13,13,0,0,1,4.83,8.69,14.88,14.88,0,0,1,9.13,4a18.9,18.9,0,0,1,6-2.8A25.47,25.47,0,0,1,21.87.25a32,32,0,0,1,7.53.87A18.79,18.79,0,0,1,35.8,4a14.46,14.46,0,0,1,4.45,5,15.37,15.37,0,0,1,1.64,7.39H31.25a8.75,8.75,0,0,0-.94-3.71,6.2,6.2,0,0,0-2.14-2.31,8.9,8.9,0,0,0-3-1.19,19,19,0,0,0-3.75-.35,12.72,12.72,0,0,0-2.66.28,7.12,7.12,0,0,0-2.41,1,6.22,6.22,0,0,0-1.79,1.75,4.76,4.76,0,0,0-.7,2.66,4.53,4.53,0,0,0,.56,2.38,5,5,0,0,0,2.21,1.68,28.17,28.17,0,0,0,4.55,1.54c1.94.51,4.47,1.17,7.59,2,.94.19,2.23.52,3.89,1a18.27,18.27,0,0,1,4.93,2.34,14.78,14.78,0,0,1,4.24,4.31,12.22,12.22,0,0,1,1.78,6.89A15.21,15.21,0,0,1,42.24,43a13.71,13.71,0,0,1-4,5.07,18.85,18.85,0,0,1-6.51,3.33,30.91,30.91,0,0,1-9,1.19,31.41,31.41,0,0,1-8-1,19.94,19.94,0,0,1-6.86-3.18,15.84,15.84,0,0,1-4.73-5.53,16.66,16.66,0,0,1-1.68-8H12.14A9.26,9.26,0,0,0,13.05,39.1Z"></path><path class="cls-1" d="M59,1.44V20.27h.21A11.46,11.46,0,0,1,64,15.69a13,13,0,0,1,5.74-1.44,17,17,0,0,1,6.55,1.08,9.79,9.79,0,0,1,4,3A11.74,11.74,0,0,1,82.39,23,29.56,29.56,0,0,1,83,29.16V51.42H73V31c0-3-.46-5.21-1.4-6.69s-2.59-2.2-5-2.2c-2.7,0-4.66.81-5.88,2.41S59,28.76,59,32.45v19H49v-50Z"></path><path class="cls-1" d="M90.75,25.48a16.55,16.55,0,0,1,9.66-9.87,20.91,20.91,0,0,1,7.7-1.36,21.17,21.17,0,0,1,7.74,1.36,16.49,16.49,0,0,1,9.69,9.87,22.2,22.2,0,0,1,1.33,7.88,21.86,21.86,0,0,1-1.33,7.84,16.9,16.9,0,0,1-3.78,6A16.55,16.55,0,0,1,115.85,51a21.38,21.38,0,0,1-7.74,1.33,21.12,21.12,0,0,1-7.7-1.33,16.78,16.78,0,0,1-5.88-3.81,17.18,17.18,0,0,1-3.78-6,22.08,22.08,0,0,1-1.33-7.84A22.42,22.42,0,0,1,90.75,25.48Zm9,12.11a11.13,11.13,0,0,0,1.44,3.71,7.53,7.53,0,0,0,2.69,2.63,8.26,8.26,0,0,0,4.2,1,8.5,8.5,0,0,0,4.24-1,7.57,7.57,0,0,0,2.73-2.63,11.34,11.34,0,0,0,1.43-3.71,21.07,21.07,0,0,0,.42-4.23,21.69,21.69,0,0,0-.42-4.27,11,11,0,0,0-1.43-3.71,8.09,8.09,0,0,0-2.73-2.63,8.29,8.29,0,0,0-4.24-1,7.6,7.6,0,0,0-6.89,3.64,10.81,10.81,0,0,0-1.44,3.71,21.69,21.69,0,0,0-.42,4.27A21.07,21.07,0,0,0,99.78,37.59Z"></path><path class="cls-1" d="M142.76,15.23v4.62h.14a11,11,0,0,1,4.62-4.27,14.14,14.14,0,0,1,6.16-1.33A15.7,15.7,0,0,1,161,15.86a15.17,15.17,0,0,1,5.11,4.27,17.86,17.86,0,0,1,3,6.19,27.29,27.29,0,0,1,1,7.39,24.62,24.62,0,0,1-1,7,17.78,17.78,0,0,1-3,5.95,14.77,14.77,0,0,1-5,4.13,15,15,0,0,1-7,1.54A13.94,13.94,0,0,1,148.05,51a11.73,11.73,0,0,1-4.66-4h-.14V64.09h-9.94V15.23Zm12.92,28.7a8.11,8.11,0,0,0,2.66-2.55,10.76,10.76,0,0,0,1.43-3.68,21.69,21.69,0,0,0,.42-4.27,20.3,20.3,0,0,0-.45-4.27,11.43,11.43,0,0,0-1.51-3.74,8.47,8.47,0,0,0-2.69-2.67,7.6,7.6,0,0,0-4-1,7.7,7.7,0,0,0-4.09,1,8.15,8.15,0,0,0-2.66,2.63,10.81,10.81,0,0,0-1.44,3.71,22.1,22.1,0,0,0-.42,4.34,19.67,19.67,0,0,0,.46,4.27,11,11,0,0,0,1.47,3.68,7.84,7.84,0,0,0,2.69,2.55,9,9,0,0,0,8.16,0Z"></path>
				
			</svg>